<?xml version="1.0" standalone="no"?>
<!DOCTYPE svg PUBLIC "-//W3C//DTD SVG 20010904//EN"
 "http://www.w3.org/TR/2001/REC-SVG-20010904/DTD/svg10.dtd">
<svg version="1.0" xmlns="http://www.w3.org/2000/svg"
 width="1440.000000pt" height="1433.000000pt" viewBox="0 0 1440.000000 1433.000000"
 preserveAspectRatio="xMidYMid meet">
<metadata>
Created by potrace 1.16, written by Peter Selinger 2001-2019
</metadata>
<g transform="translate(0.000000,1433.000000) scale(0.100000,-0.100000)"
fill="#000000" stroke="none">
<path d="M5552 14319 c-13 -5 -31 -16 -40 -25 -10 -11 -17 -13 -20 -6 -4 12
-30 -1 -117 -53 -22 -14 -47 -25 -56 -25 -9 0 -22 -6 -28 -14 -7 -8 -24 -17
-39 -21 -15 -4 -49 -24 -77 -46 -27 -22 -99 -78 -160 -125 -60 -47 -113 -94
-117 -105 -4 -11 -18 -23 -31 -28 -13 -5 -34 -25 -48 -45 -13 -20 -29 -36 -35
-36 -14 0 -77 -68 -95 -101 -8 -17 -11 -85 -10 -242 1 -145 -2 -231 -10 -254
-8 -25 -8 -37 -1 -42 7 -4 11 -54 10 -136 -2 -268 11 -695 23 -716 8 -15 8
-24 0 -28 -5 -4 -13 -40 -17 -82 -5 -63 -2 -90 20 -171 29 -108 30 -112 16
-103 -16 10 -12 -5 21 -85 17 -41 50 -131 74 -200 60 -175 67 -190 98 -235 28
-41 34 -65 17 -65 -15 0 -12 -30 4 -36 8 -3 17 -23 21 -44 4 -21 13 -41 21
-44 10 -4 13 -13 9 -25 -3 -11 -1 -22 5 -26 5 -3 10 -17 10 -31 0 -27 34 -100
75 -160 16 -23 23 -44 19 -57 -4 -12 2 -28 19 -45 28 -31 47 -64 47 -84 0 -7
-11 5 -25 27 -19 31 -24 35 -25 19 0 -31 28 -106 51 -134 19 -23 19 -22 -2 20
-14 28 -17 40 -7 33 21 -18 60 -101 53 -113 -11 -18 42 -77 99 -109 60 -35 68
-37 60 -17 -5 12 6 15 55 14 58 -1 76 -9 49 -22 -7 -3 25 -3 72 0 47 3 90 10
97 16 7 5 83 18 169 29 87 11 163 24 169 29 6 5 21 7 33 3 13 -3 30 1 40 9 9
8 63 29 119 47 324 101 571 290 737 564 123 204 297 627 335 813 28 139 33
724 8 944 -18 156 -50 338 -73 410 -8 25 -14 57 -14 73 0 47 -116 330 -164
400 -15 21 -37 60 -50 85 -13 26 -38 64 -55 86 -17 21 -31 44 -31 50 0 6 -29
41 -65 76 -36 35 -65 70 -65 76 0 18 -85 92 -126 109 -31 13 -107 15 -533 14
-280 0 -506 -4 -519 -10z m703 -375 c70 -14 161 -69 236 -144 64 -63 84 -92
126 -180 115 -238 199 -577 223 -897 13 -169 5 -374 -16 -417 -8 -17 -24 -75
-35 -130 -37 -182 -148 -486 -193 -532 -7 -7 -19 -27 -26 -46 -39 -96 -235
-350 -283 -367 -7 -2 -34 -24 -61 -48 -27 -24 -54 -42 -60 -41 -17 4 -78 -23
-104 -46 -15 -13 -45 -23 -85 -28 -119 -14 -152 -21 -163 -36 -7 -10 -18 -13
-30 -8 -27 11 -155 17 -168 8 -6 -4 -49 -7 -96 -7 -80 0 -108 -7 -185 -41 -16
-7 -42 -16 -58 -20 -23 -5 -26 -3 -21 10 4 10 0 34 -9 54 -8 20 -22 71 -30
112 -20 99 -89 334 -99 338 -4 2 -8 17 -8 33 0 17 -5 39 -10 49 -6 10 -12 40
-15 66 -2 25 -11 60 -20 77 -8 16 -15 36 -15 43 0 7 -6 25 -14 41 -8 15 -22
64 -32 108 -20 90 -20 91 -22 158 -1 28 -6 46 -11 42 -6 -3 -12 9 -15 27 -5
32 -13 85 -21 138 -2 14 -13 68 -25 120 -11 52 -25 149 -30 215 -5 65 -15 130
-22 143 -10 19 -10 25 2 32 8 6 12 10 9 10 -3 0 -3 22 2 49 5 34 3 67 -7 103
-7 29 -13 67 -12 83 1 25 2 24 7 -10 5 -35 8 -29 19 55 12 89 17 102 74 195
33 55 64 102 68 105 4 3 13 22 19 42 14 42 29 57 41 39 5 -9 10 -8 20 4 7 8 9
15 5 15 -4 0 4 9 19 21 14 11 26 27 26 35 0 8 6 14 14 14 8 0 16 7 20 15 3 8
12 15 20 15 13 0 65 53 95 98 8 12 24 20 35 19 13 -1 25 7 34 25 7 16 22 33
33 38 23 13 25 3 2 -22 -20 -23 -3 -24 38 -2 33 17 74 54 60 54 -5 0 -14 -7
-21 -15 -7 -8 -18 -15 -24 -15 -6 1 5 14 24 31 19 16 41 27 49 24 7 -3 37 6
67 20 29 14 60 25 70 25 14 0 14 3 4 15 -15 18 -15 19 29 34 24 8 37 8 41 1 7
-11 101 20 128 42 7 6 38 14 70 18 59 8 264 4 317 -6z"/>
<path d="M8170 14310 c-30 -10 -61 -19 -69 -19 -8 -1 -32 -10 -55 -20 -23 -11
-49 -22 -59 -25 -9 -3 -21 -14 -24 -23 -8 -21 -43 -52 -60 -53 -12 0 -125
-123 -132 -143 -2 -7 -13 -25 -25 -42 -28 -39 -46 -75 -46 -89 0 -17 -45 -122
-59 -140 -7 -8 -15 -30 -17 -48 -7 -52 -4 -252 6 -388 24 -314 12 -525 -36
-646 -13 -33 -25 -80 -27 -103 -1 -23 -8 -45 -14 -49 -29 -18 -48 -97 -48
-202 0 -104 20 -230 36 -230 5 0 9 -8 9 -18 0 -10 9 -35 20 -57 11 -21 25 -54
31 -74 6 -20 19 -45 28 -56 9 -11 25 -38 36 -59 20 -39 78 -89 123 -107 13 -5
63 -16 111 -23 72 -12 96 -12 141 -1 81 19 190 55 230 76 19 10 98 48 175 85
315 150 370 177 375 184 3 4 19 14 35 23 43 23 77 55 71 65 -3 5 32 46 77 93
46 46 98 107 117 134 84 124 149 224 173 265 14 25 36 56 48 68 11 13 19 25
16 28 -2 3 13 44 34 93 20 48 41 104 44 124 4 21 12 37 17 37 6 0 7 -11 4 -27
-5 -17 -3 -29 6 -34 10 -7 11 -12 1 -29 -16 -24 -17 -208 -3 -300 6 -36 22
-88 36 -116 22 -43 33 -53 64 -63 l39 -11 -29 -32 c-48 -52 -62 -167 -27 -234
21 -41 71 -80 136 -107 50 -20 71 -22 197 -20 83 2 193 11 265 23 68 11 141
20 161 20 20 0 40 5 43 10 3 6 16 10 27 10 39 0 97 22 92 35 -4 8 11 15 43 20
26 4 101 22 166 41 136 39 130 38 122 22 -4 -7 2 -4 12 8 10 11 38 32 63 46
25 14 66 44 92 67 25 23 49 41 53 41 3 0 13 7 21 15 9 8 12 15 9 15 -4 0 17
28 47 63 30 34 71 83 92 110 36 45 60 59 68 37 2 -6 9 -1 16 10 10 17 10 20
-3 20 -12 0 -13 4 -5 18 5 9 21 44 34 77 19 46 26 56 32 42 3 -10 2 -23 -5
-30 -13 -13 -14 -27 -2 -27 20 0 44 106 47 209 2 86 -2 122 -21 191 -27 96
-40 157 -60 281 -13 81 -37 157 -75 244 -10 22 -21 58 -25 80 -4 22 -27 83
-52 135 -38 80 -57 106 -125 172 -44 43 -86 78 -94 78 -7 0 -17 6 -21 14 -4 7
-46 26 -92 41 -84 28 -86 28 -265 21 -138 -5 -184 -11 -197 -22 -9 -8 -40 -19
-70 -24 -51 -9 -120 -30 -164 -50 -11 -5 -44 -16 -72 -25 -29 -9 -55 -20 -58
-25 -6 -10 -112 -60 -128 -60 -34 0 -135 -164 -172 -278 -18 -59 -47 -135 -69
-185 -9 -21 -28 -75 -41 -120 -14 -45 -31 -99 -37 -119 -6 -21 -15 -38 -19
-38 -4 0 -10 28 -13 63 -6 63 -13 112 -16 112 -1 0 -3 23 -5 50 -3 86 -142
432 -215 540 -24 34 -85 100 -132 142 -7 6 -34 36 -60 66 -26 30 -80 75 -121
101 l-75 46 -323 -1 c-289 0 -330 -2 -379 -19z m467 -421 c53 -26 97 -55 124
-84 23 -25 48 -45 55 -45 8 0 21 -12 31 -27 9 -16 25 -37 34 -48 23 -26 84
-145 94 -181 4 -16 9 -45 10 -65 2 -19 12 -55 22 -80 55 -126 68 -210 53 -332
-11 -88 -41 -168 -89 -235 -11 -17 -22 -43 -24 -59 -3 -29 -91 -120 -206 -213
-23 -19 -52 -43 -63 -52 -11 -10 -29 -20 -39 -23 -11 -4 -19 -10 -19 -15 0 -5
-30 -26 -67 -46 -38 -21 -80 -46 -95 -56 -14 -10 -39 -18 -55 -18 -16 0 -33
-4 -39 -10 -22 -22 -350 -95 -366 -81 -4 3 -15 35 -24 71 -9 36 -20 70 -24 75
-4 6 -11 25 -15 43 -4 22 -11 32 -20 28 -14 -5 -37 59 -66 176 -14 61 -8 250
9 271 7 8 9 17 4 19 -6 2 -4 41 4 98 7 52 13 99 14 104 0 4 9 6 20 3 22 -6 29
18 8 26 -16 5 -15 129 1 167 8 20 10 13 7 -38 -2 -34 0 -65 5 -68 9 -5 14 44
11 101 -1 17 5 50 13 75 8 25 18 74 23 110 14 93 33 138 105 242 68 99 118
138 222 175 147 52 220 50 342 -8z m1968 -228 c47 -4 83 -4 86 2 19 28 91 -53
109 -123 12 -46 40 -207 38 -218 -1 -4 1 -14 4 -22 6 -15 28 -150 28 -169 0
-6 -9 -11 -20 -11 -11 0 -20 -4 -20 -10 0 -5 6 -10 13 -10 21 0 37 -38 43
-103 4 -49 3 -58 -6 -44 -7 10 -9 25 -6 33 3 9 -1 25 -9 37 -14 21 -15 20 -15
-16 0 -21 5 -48 11 -59 11 -20 3 -71 -22 -139 -12 -31 -59 -76 -118 -113 -24
-15 -62 -45 -85 -66 -23 -21 -55 -42 -71 -46 -17 -4 -46 -15 -65 -26 -19 -10
-43 -18 -52 -18 -10 0 -26 -4 -36 -9 -88 -46 -129 -53 -321 -57 -84 -1 -156
-5 -159 -8 -11 -12 -43 -6 -36 6 5 8 2 9 -12 3 -29 -12 -210 -18 -229 -8 -9 6
-25 33 -35 61 -15 43 -17 63 -9 134 5 46 13 94 18 108 5 14 15 50 22 80 12 54
39 123 81 206 12 23 19 51 16 62 -4 12 0 26 9 33 8 7 35 44 61 83 78 116 87
128 151 201 34 39 73 87 89 107 15 21 31 37 36 38 5 0 31 14 58 31 26 17 67
37 91 44 47 15 234 18 362 6z"/>
<path d="M12270 13546 c-52 -7 -124 -20 -159 -30 -35 -9 -73 -16 -85 -15 -11
1 -33 -3 -47 -9 -36 -15 -165 -132 -197 -179 -14 -21 -32 -44 -39 -51 -7 -8
-18 -23 -25 -35 -6 -12 -25 -40 -43 -62 -35 -44 -134 -235 -185 -358 -26 -62
-31 -88 -27 -123 2 -24 1 -44 -3 -44 -22 0 -68 -193 -79 -338 -6 -74 -12 -96
-28 -111 -11 -11 -40 -58 -63 -105 -38 -76 -44 -98 -52 -188 -7 -75 -6 -114 3
-148 20 -72 68 -168 96 -190 14 -11 24 -22 22 -24 -6 -5 -92 26 -194 72 -126
55 -411 143 -525 161 -325 51 -414 63 -545 72 -82 6 -202 8 -265 5 -194 -10
-344 -23 -375 -34 -48 -16 -123 -24 -105 -11 12 8 11 9 -5 5 -11 -2 -49 -7
-85 -11 -225 -23 -483 -87 -744 -187 -84 -32 -132 -46 -139 -39 -6 6 -24 3
-51 -9 -22 -10 -69 -26 -104 -36 -35 -10 -65 -21 -68 -26 -6 -9 -77 -42 -169
-78 -57 -23 -124 -56 -260 -129 -33 -18 -107 -58 -165 -88 -184 -98 -404 -246
-545 -368 -33 -28 -71 -60 -85 -71 -39 -31 -108 -102 -213 -222 -95 -108 -130
-137 -107 -89 6 12 -12 -3 -39 -33 -49 -53 -65 -80 -38 -64 6 5 -13 -21 -43
-56 -88 -102 -130 -157 -130 -170 0 -20 -41 -91 -49 -86 -5 3 -27 -35 -50 -84
-23 -49 -46 -92 -51 -95 -14 -9 -65 -110 -95 -191 -34 -91 -59 -193 -86 -354
-15 -90 -28 -139 -38 -147 -14 -10 -16 -44 -18 -223 0 -116 -4 -214 -7 -217
-3 -4 -6 36 -6 87 0 67 -3 91 -11 83 -15 -15 -23 -298 -10 -348 10 -36 10 -33
5 30 -7 101 3 76 21 -50 23 -160 46 -299 51 -307 3 -5 1 -8 -5 -8 -5 0 -11 6
-14 13 -4 13 -3 6 14 -88 10 -58 117 -403 159 -515 17 -48 19 -50 15 -17 -9
58 10 44 40 -30 14 -38 51 -115 81 -173 37 -70 47 -95 30 -75 -36 42 -32 16 4
-30 16 -21 30 -43 30 -50 0 -27 213 -305 306 -401 307 -312 554 -612 603 -732
7 -18 17 -32 22 -32 5 0 6 -7 3 -15 -3 -8 2 -27 13 -42 20 -32 45 -80 102
-204 55 -121 122 -429 107 -500 -3 -17 -1 -29 7 -32 16 -5 16 -628 0 -952 -30
-574 -35 -793 -30 -1095 9 -421 30 -644 92 -940 73 -353 208 -708 359 -942 20
-32 34 -58 30 -58 -3 0 -73 45 -154 100 -82 55 -151 100 -154 100 -10 0 570
-1140 628 -1234 34 -54 99 -138 145 -187 l83 -89 877 3 876 3 187 41 c653 145
986 266 1406 512 62 36 132 77 155 91 24 14 63 41 86 60 24 19 57 47 74 61 18
14 59 44 92 66 137 93 306 308 378 483 77 186 76 375 -2 608 -32 96 -92 224
-302 647 -71 143 -129 264 -129 269 0 14 -65 139 -121 232 -27 45 -49 86 -49
91 0 5 -22 52 -50 105 -27 53 -50 106 -50 118 0 23 -170 446 -195 483 -46 71
-133 579 -142 834 -3 84 -10 150 -14 147 -5 -3 -9 29 -9 70 0 77 15 112 23 54
2 -18 3 -8 0 22 -2 30 1 80 7 110 6 30 17 98 25 150 8 52 30 162 49 243 20 82
35 158 34 170 -1 12 7 51 17 87 9 36 20 75 22 88 12 51 19 16 15 -70 -2 -57
-1 -89 5 -83 42 46 153 225 177 285 14 37 77 141 96 160 13 13 151 311 165
355 8 28 24 59 36 68 13 12 18 25 15 40 -3 12 -3 16 0 9 9 -19 36 43 95 218
26 80 62 181 79 225 68 175 140 419 175 590 20 99 39 187 42 195 4 8 12 53 19
100 6 47 23 155 37 240 36 216 60 442 62 590 2 69 5 231 8 360 3 159 0 277 -9
365 -14 133 -29 229 -40 246 -3 5 -10 39 -15 74 -5 35 -15 81 -23 102 -7 21
-36 101 -64 179 -77 216 -197 444 -301 574 -20 25 -44 62 -55 82 -10 20 -53
74 -95 121 -42 46 -89 101 -106 123 -16 21 -57 64 -90 94 -33 30 -49 43 -36
27 14 -15 19 -27 13 -27 -6 0 -13 4 -17 9 -9 16 -183 160 -229 192 -24 15 -49
36 -56 45 -8 8 -40 29 -73 45 -32 17 -57 32 -55 34 2 2 21 0 43 -5 22 -5 55
-10 72 -10 26 0 36 -6 48 -30 17 -33 31 -37 61 -16 14 10 31 12 64 6 25 -5 47
-4 50 1 3 4 30 2 60 -6 171 -46 419 8 554 120 26 22 53 39 59 37 7 -2 9 0 5 3
-12 12 83 120 105 120 11 0 22 6 25 13 2 6 -1 12 -6 12 -11 0 -3 45 25 145 11
39 20 73 19 77 0 3 3 10 8 15 9 8 4 -31 -12 -104 -14 -62 -1 -62 20 -1 12 36
16 67 11 97 -3 25 -2 41 3 38 12 -7 12 1 17 259 2 121 6 225 10 230 3 5 1 45
-5 89 -10 80 -13 374 -3 383 3 3 0 11 -5 17 -5 7 -12 93 -15 191 -6 189 -17
252 -57 315 -45 71 -146 140 -201 137 -17 0 -57 2 -87 5 -30 3 -98 0 -150 -7z
m32 -426 c66 -25 78 -90 75 -424 -1 -190 2 -257 11 -269 9 -10 10 -22 3 -40
-5 -14 -10 -94 -10 -179 -1 -215 -1 -218 -12 -266 -16 -74 -99 -157 -204 -206
-51 -25 -155 -32 -240 -17 -50 9 -70 9 -75 1 -9 -14 -45 1 -118 48 -33 22 -51
40 -48 48 3 8 1 13 -5 11 -21 -4 -50 50 -59 111 -5 40 -22 87 -47 132 -30 56
-35 73 -24 79 10 7 10 10 1 16 -7 4 -15 3 -19 -3 -4 -7 -21 -4 -50 9 -34 15
-42 22 -33 31 7 7 12 21 12 32 0 16 3 17 12 8 9 -9 9 -15 0 -24 -16 -16 -15
-28 2 -28 16 0 29 27 20 42 -3 5 3 19 14 31 11 12 30 47 43 77 12 30 28 62 36
71 7 8 13 20 13 26 0 5 12 23 26 39 27 30 74 120 74 141 0 7 13 27 28 45 16
18 37 48 47 66 11 17 22 32 26 32 4 0 19 24 34 53 14 28 37 62 51 74 13 12 24
26 24 32 0 17 151 150 186 163 18 6 34 18 34 25 0 7 3 13 8 14 22 2 56 10 61
14 8 8 64 0 103 -15z m-2092 -1999 c80 -5 158 -14 173 -20 16 -6 53 -11 83
-11 103 0 335 -66 489 -140 55 -26 121 -57 147 -68 62 -27 123 -69 228 -156
115 -96 321 -306 378 -386 25 -36 63 -85 83 -110 20 -25 42 -56 49 -70 12 -23
12 -24 -3 -11 -24 19 -21 7 8 -39 26 -41 38 -71 85 -210 75 -224 119 -384 144
-530 20 -118 24 -223 6 -155 -6 21 -7 8 -5 -40 2 -38 9 -162 15 -275 17 -309
-7 -853 -46 -1045 -8 -38 -14 -90 -15 -115 -1 -25 -5 -56 -9 -70 l-8 -25 -2
25 c-1 19 -5 14 -14 -20 -14 -53 -12 -61 10 -34 15 19 15 19 10 -1 -2 -11 -10
-44 -16 -73 -13 -56 -30 -78 -31 -40 0 22 -1 22 -8 3 -24 -59 -33 -99 -23
-103 5 -1 -12 -51 -39 -112 -27 -61 -49 -119 -49 -131 0 -23 -17 -59 -35 -74
-6 -5 -22 -37 -34 -70 -12 -33 -31 -69 -41 -80 -24 -26 -162 -300 -220 -434
-26 -62 -57 -117 -76 -136 -23 -24 -41 -60 -67 -141 -36 -109 -96 -258 -97
-238 0 5 13 49 29 97 17 48 26 87 22 87 -16 0 -132 -273 -130 -308 0 -9 9 6
19 33 10 28 19 47 19 43 1 -3 -15 -73 -34 -155 -19 -81 -37 -158 -40 -171 -3
-13 -10 -20 -15 -17 -6 3 -10 -2 -10 -12 0 -10 -6 -43 -14 -74 -13 -48 -57
-432 -55 -476 0 -11 5 -6 12 12 10 26 13 6 17 -130 5 -160 2 -202 -11 -155
-12 44 -3 -129 15 -280 9 -80 21 -153 26 -162 5 -9 19 -66 30 -125 68 -351
168 -766 196 -808 9 -14 18 -44 19 -68 2 -23 18 -76 35 -117 28 -65 64 -164
151 -409 11 -30 17 -64 13 -75 -4 -15 -3 -17 4 -7 14 20 72 -161 72 -226 0
-53 15 -81 23 -41 l4 23 11 -25 11 -25 1 30 1 30 11 -25 c21 -51 20 3 -2 62
-22 59 -22 66 -10 202 6 77 15 147 19 154 5 9 20 -20 41 -79 18 -52 66 -175
107 -274 147 -357 198 -557 197 -775 0 -299 -101 -497 -359 -703 -388 -310
-915 -483 -1654 -542 -255 -21 -755 -35 -839 -24 -294 37 -603 305 -712 618
-15 42 -39 108 -53 146 -47 128 -147 505 -188 707 -42 214 -51 275 -98 663
-52 431 -54 491 -56 1630 -2 746 -5 1078 -13 1120 -7 33 -12 79 -12 102 0 85
-43 194 -226 568 -30 62 -132 204 -198 276 -27 30 -46 47 -42 39 13 -25 -39
38 -121 145 -96 125 -161 202 -288 342 -55 61 -115 129 -134 153 -21 26 -36
38 -41 30 -4 -7 -20 5 -43 34 -42 50 -48 69 -14 40 l22 -19 -19 22 c-10 12
-21 21 -25 20 -3 -1 -7 3 -9 8 -2 6 -9 17 -16 25 -49 56 -191 274 -237 364
-23 45 -52 93 -65 108 -12 15 -32 53 -43 83 -26 69 -104 382 -121 485 -7 41
-16 95 -21 120 -18 89 -29 320 -30 608 -1 161 1 296 5 299 3 4 6 -9 7 -28 0
-19 12 25 25 96 37 195 56 244 144 369 49 70 241 273 346 366 49 43 103 91
119 107 48 44 153 125 245 188 47 32 112 77 145 100 33 24 85 55 115 70 30 15
60 35 66 44 7 9 43 31 80 50 115 56 126 63 199 104 39 21 113 54 165 72 52 18
161 60 242 93 82 34 173 68 203 77 31 9 93 31 138 49 45 18 114 38 152 45 39
6 84 16 100 21 17 5 116 25 220 44 201 36 364 50 533 47 76 -2 102 0 102 10 0
13 92 10 450 -10z"/>
<path d="M13825 12411 c-3 -5 -21 -7 -39 -4 -63 10 -425 -87 -488 -131 -98
-69 -312 -288 -313 -321 0 -5 -8 -24 -17 -40 -9 -17 -19 -47 -23 -68 -4 -20
-11 -40 -16 -43 -5 -3 -9 -16 -9 -29 0 -13 -4 -27 -10 -30 -5 -3 -10 -24 -10
-46 0 -58 -29 -164 -51 -188 -11 -11 -43 -27 -71 -36 -64 -19 -128 -60 -128
-81 0 -9 -15 -33 -33 -55 -42 -48 -97 -208 -104 -299 -3 -36 -9 -73 -14 -82
-15 -27 1 -99 31 -145 16 -22 31 -50 34 -60 9 -29 184 -201 247 -243 84 -56
224 -123 312 -150 65 -20 83 -22 110 -12 23 8 45 8 77 1 49 -11 130 -5 228 17
90 20 218 92 297 166 60 56 125 137 125 156 0 4 11 17 24 29 23 23 156 244
156 262 0 5 6 22 14 38 49 100 156 372 162 413 2 14 8 45 14 69 7 30 8 46 1
51 -7 4 -6 32 4 84 21 109 21 295 -1 371 -9 33 -19 71 -22 85 -3 13 -21 46
-39 72 -21 28 -32 53 -27 60 4 7 4 10 -1 6 -4 -4 -31 13 -59 37 -28 25 -54 45
-58 45 -5 0 -8 9 -8 20 0 14 5 18 18 13 10 -4 14 -2 9 3 -5 5 -34 9 -65 10
-31 1 -95 8 -142 15 -72 10 -80 14 -56 20 16 5 36 4 45 0 19 -10 76 -9 87 2 4
4 -1 8 -12 8 -37 3 -62 6 -87 13 -14 3 -29 2 -32 -4 -3 -5 -17 -10 -31 -10
-14 0 -22 4 -19 10 3 6 4 10 1 10 -3 0 -7 -4 -11 -9z m-38 -472 c32 -9 59 -26
91 -58 26 -25 51 -46 56 -46 6 0 14 -17 19 -38 10 -40 -11 -187 -34 -244 -7
-16 -13 -38 -15 -49 -1 -12 -12 -45 -24 -73 -22 -49 -43 -65 -53 -38 -3 7 -6
5 -6 -5 -1 -10 3 -18 8 -18 5 0 8 -10 6 -22 -3 -30 -36 -98 -47 -98 -13 0 -9
30 5 35 6 3 13 17 14 32 1 27 1 27 -13 8 -8 -11 -17 -31 -21 -45 -3 -14 -16
-35 -29 -47 -13 -13 -30 -38 -39 -57 -9 -19 -47 -66 -85 -105 -38 -40 -71 -80
-75 -90 -6 -20 -108 -111 -124 -111 -6 0 -11 -7 -11 -15 0 -8 -4 -15 -10 -15
-5 0 -18 -9 -28 -20 -12 -13 -37 -23 -65 -26 -39 -5 -55 -1 -90 20 -25 14 -58
41 -75 60 -16 19 -33 32 -36 28 -4 -3 -26 16 -50 43 -54 60 -65 113 -35 161
16 27 21 60 28 201 8 156 10 171 35 215 15 25 33 52 41 58 8 7 15 24 16 39 0
25 28 53 159 158 19 15 44 37 55 48 12 11 37 28 56 37 19 9 45 24 59 32 76 44
232 66 317 45z"/>
</g>
</svg>
